<?xml version="1.0" standalone="no"?>
<!DOCTYPE svg PUBLIC "-//W3C//DTD SVG 20010904//EN"
 "http://www.w3.org/TR/2001/REC-SVG-20010904/DTD/svg10.dtd">
<svg version="1.0" xmlns="http://www.w3.org/2000/svg"
 width="1600.000000pt" height="1600.000000pt" viewBox="0 0 1600.000000 1600.000000"
 preserveAspectRatio="xMidYMid meet">
<metadata>
Created by potrace 1.11, written by Peter Selinger 2001-2013
</metadata>
<g transform="translate(0.000000,1600.000000) scale(0.100000,-0.100000)"
fill="#000000" stroke="none">
<path d="M3815 10340 c-3 -6 -11 -7 -17 -4 -7 4 -8 2 -4 -4 4 -6 -7 -21 -24
-33 -16 -13 -30 -29 -30 -38 0 -8 -2 -12 -5 -9 -6 6 -185 -171 -185 -183 0 -5
-4 -9 -9 -9 -15 0 -120 -108 -112 -116 3 -4 -2 -4 -12 -1 -10 4 -16 3 -13 -1
2 -4 -2 -16 -10 -27 -8 -10 -14 -16 -14 -12 0 4 -52 -46 -115 -110 -63 -64
-115 -120 -115 -125 0 -4 -7 -8 -15 -8 -8 0 -15 -7 -15 -17 0 -9 -3 -14 -6
-10 -7 7 -44 -29 -44 -45 0 -6 -3 -9 -6 -6 -5 6 -97 -83 -134 -129 -11 -14
-20 -23 -20 -20 0 3 -13 -6 -28 -21 -15 -15 -26 -30 -24 -34 2 -5 -4 -8 -12
-8 -9 0 -16 -7 -16 -15 0 -8 -4 -15 -9 -15 -12 0 -151 -140 -151 -152 0 -5 -4
-7 -9 -3 -5 3 -13 -4 -16 -16 -4 -11 -9 -18 -12 -15 -6 6 -133 -122 -133 -135
0 -5 -7 -9 -15 -9 -8 0 -15 -7 -15 -16 0 -8 -3 -14 -7 -12 -5 2 -20 -9 -35
-24 -15 -15 -24 -28 -21 -28 3 0 -6 -9 -20 -20 -44 -35 -287 -281 -287 -291 0
-5 -4 -9 -9 -9 -10 0 -308 -295 -342 -338 -14 -18 -16 -29 -9 -48 5 -13 6 -24
2 -24 -4 0 -7 -16 -7 -35 0 -19 4 -35 10 -35 5 0 4 -5 -2 -11 -6 -6 -8 -23 -3
-45 4 -19 5 -34 1 -34 -3 0 -6 -54 -6 -120 0 -66 4 -120 8 -120 5 0 5 -6 1
-12 -11 -17 -12 -48 -3 -48 4 0 4 -13 -1 -29 -5 -19 -4 -33 3 -40 6 -6 7 -11
2 -11 -6 0 -10 -11 -10 -25 0 -14 5 -25 10 -25 7 0 7 -3 0 -8 -11 -7 -16 -52
-6 -52 3 0 4 -49 1 -110 -3 -66 -1 -110 5 -110 5 0 4 -5 -2 -11 -6 -6 -8 -23
-3 -45 4 -19 5 -34 1 -34 -3 0 -6 -13 -6 -30 0 -16 4 -30 9 -30 5 0 4 -6 -2
-12 -6 -8 -6 -22 -1 -36 8 -21 14 -22 81 -21 40 0 78 0 83 -1 6 -1 44 -1 85 0
91 2 142 2 155 0 6 -1 44 -1 85 0 41 1 92 2 112 3 21 0 40 -2 43 -5 3 -3 23
-2 45 2 23 4 40 3 40 -2 0 -5 4 -7 9 -4 12 8 139 11 146 4 3 -3 23 -2 45 2 23
4 40 3 40 -2 0 -5 4 -7 9 -4 8 5 124 10 146 6 6 -1 33 -1 60 -1 291 2 829 0
836 -4 4 -3 10 -1 14 5 4 6 13 7 23 1 16 -8 17 -63 16 -736 0 -506 3 -728 10
-733 18 -11 1044 -8 1058 3 16 13 19 375 3 375 -5 0 -3 5 5 11 11 8 12 12 2
16 -6 2 -9 9 -6 15 9 15 10 388 1 388 -5 0 -5 5 -1 12 11 17 10 118 -1 118 -5
0 -3 5 5 11 11 8 12 12 2 16 -6 2 -9 10 -5 15 7 13 7 344 -1 357 -4 5 0 12 6
14 10 4 10 8 -1 15 -7 5 -9 12 -4 15 5 3 8 24 6 47 -2 34 1 41 15 38 9 -1 23
1 30 5 6 5 12 5 12 0 0 -10 573 -9 589 1 6 4 11 4 11 -1 0 -12 6713 -10 6722
2 5 6 8 5 8 -4 0 -11 3 -11 15 -1 8 7 15 9 15 4 0 -10 833 -10 849 1 6 3 11 1
11 -6 0 -8 4 -8 15 1 12 10 15 10 15 0 0 -10 3 -10 14 -1 11 9 15 9 20 -1 4
-9 8 -10 11 -2 3 7 14 10 23 8 38 -8 123 -10 128 -3 3 5 15 4 28 -1 15 -5 27
-5 35 3 8 8 11 8 11 -2 0 -10 3 -11 13 -2 8 6 16 8 20 5 5 -5 173 -8 195 -3 4
1 11 1 16 0 5 -1 131 -2 280 -1 240 0 272 2 283 17 7 9 9 21 4 27 -5 6 -5 20
-1 31 4 11 3 28 -2 38 -6 12 -5 17 4 17 9 0 9 3 1 11 -8 8 -8 20 -2 36 6 18 6
22 -3 17 -7 -4 -8 -3 -4 5 12 18 15 61 5 67 -5 2 -4 16 1 30 7 18 7 23 -2 18
-6 -4 -8 -3 -4 4 11 18 14 72 4 78 -5 3 -4 11 2 19 8 9 8 15 0 20 -6 3 -8 11
-5 16 8 11 50 10 -455 14 -474 5 -490 5 -490 17 0 8 18 12 35 8 18 -5 755 -5
756 0 9 33 3 58 -15 75 -13 12 -20 27 -18 35 3 8 1 12 -3 8 -9 -8 -35 16 -35
32 0 15 -26 41 -34 33 -3 -4 -6 1 -6 10 0 9 -4 17 -10 17 -5 0 -10 7 -10 16 0
8 -3 13 -7 11 -12 -7 -30 17 -27 36 1 9 -1 15 -4 13 -4 -2 -20 9 -35 25 -16
16 -25 29 -20 29 4 0 0 5 -9 11 -10 5 -18 15 -18 21 0 6 -13 24 -30 40 -16 15
-30 35 -30 44 0 8 -4 12 -10 9 -5 -3 -10 0 -10 7 0 8 -9 20 -20 28 -11 8 -20
20 -20 28 0 7 -7 15 -15 18 -8 4 -13 10 -10 14 3 5 -4 11 -15 15 -11 3 -20 13
-20 21 0 8 -5 14 -11 14 -5 0 -7 5 -4 10 3 6 -1 10 -10 10 -9 0 -13 5 -10 10
3 6 1 10 -6 10 -7 0 -9 3 -6 6 3 4 -5 16 -19 26 -14 11 -23 22 -21 25 3 2 -7
17 -22 33 -58 64 -71 80 -66 80 4 0 0 7 -9 15 -8 8 -20 15 -26 15 -6 0 -10 7
-8 17 3 18 38 27 38 10 0 -8 3 -8 8 -2 4 6 16 11 27 11 11 0 23 -5 27 -11 5
-7 8 -6 8 1 0 12 38 13 57 1 6 -4 14 -4 17 1 6 10 57 9 74 -2 7 -4 12 -3 12 2
0 12 63 9 72 -3 5 -7 8 -6 8 1 0 11 64 13 75 2 4 -4 17 -3 30 2 13 5 26 6 29
3 3 -4 6 -1 6 5 0 7 3 11 8 11 18 -3 20 3 12 31 -5 19 -5 30 1 30 6 0 7 4 4
10 -8 13 -9 206 -1 219 4 6 2 11 -4 11 -6 0 -8 5 -5 11 9 14 14 59 6 59 -8 0
-5 105 3 119 4 6 2 11 -4 11 -7 0 -8 6 0 19 7 14 7 22 0 26 -8 5 -7 11 1 21 9
11 9 14 0 14 -8 0 -9 5 -4 14 4 8 6 49 3 91 -3 42 -1 80 4 85 7 7 5 10 -2 10
-8 0 -10 5 -5 14 4 8 6 49 3 91 -3 42 -1 80 4 85 7 7 5 10 -2 10 -9 0 -10 5
-2 19 7 14 7 22 0 26 -8 5 -7 11 1 21 9 11 9 14 0 14 -9 0 -9 5 -1 21 8 14 8
24 1 32 -5 7 -6 19 -2 26 5 7 5 28 1 47 -5 20 -4 37 2 40 5 3 4 11 -3 20 -6 8
-9 14 -6 14 3 0 -38 44 -91 98 -53 54 -100 97 -104 95 -5 -2 -8 0 -8 6 0 13
-78 91 -92 91 -6 0 -9 2 -6 6 3 3 -51 62 -121 132 l-126 127 -775 0 c-755 0
-775 0 -789 -19 -11 -15 -12 -21 -3 -24 7 -2 9 -8 6 -14 -10 -16 -10 -88 1
-88 6 0 4 -4 -4 -9 -9 -6 -10 -11 -2 -15 6 -4 8 -12 4 -18 -10 -18 -9 -118 2
-122 6 -3 4 -5 -4 -5 -10 -1 -11 -4 -2 -15 7 -8 8 -17 3 -20 -5 -3 -6 -26 -2
-50 4 -25 3 -51 -1 -58 -4 -7 -3 -18 3 -25 7 -9 7 -13 0 -13 -11 0 -11 -18 0
-35 4 -6 3 -17 -2 -25 -5 -8 -5 -21 0 -30 5 -9 5 -22 0 -29 -4 -8 -4 -26 0
-41 4 -15 4 -33 -1 -41 -4 -8 -3 -19 3 -26 6 -8 6 -13 1 -13 -5 0 -10 -7 -10
-15 0 -8 4 -15 8 -15 5 0 5 -10 0 -23 -5 -13 -5 -30 -1 -38 5 -8 5 -21 0 -28
-4 -8 -4 -26 0 -41 4 -15 4 -33 -1 -41 -4 -8 -3 -19 3 -26 6 -8 6 -13 1 -13
-5 0 -10 -7 -10 -15 0 -8 4 -15 9 -15 5 0 6 -5 3 -11 -11 -17 -11 -89 0 -89 6
0 4 -4 -4 -9 -9 -6 -10 -11 -2 -15 6 -4 8 -12 4 -18 -10 -18 -9 -118 2 -122 6
-3 4 -5 -4 -5 -10 -1 -11 -4 -2 -15 8 -9 8 -16 2 -20 -6 -4 -7 -15 -2 -29 5
-14 5 -30 0 -40 -7 -12 -6 -17 3 -17 8 0 9 -3 1 -11 -6 -6 -8 -23 -3 -43 4
-19 3 -41 -2 -50 -6 -11 -5 -16 4 -16 8 0 9 -3 1 -11 -6 -6 -8 -23 -3 -43 4
-19 3 -41 -2 -50 -6 -11 -5 -16 3 -16 9 0 9 -3 0 -14 -8 -10 -9 -16 -1 -21 7
-4 7 -12 0 -26 -8 -14 -7 -19 2 -19 8 0 9 -3 1 -11 -6 -6 -8 -23 -3 -43 4 -19
3 -41 -2 -50 -6 -11 -5 -16 4 -16 8 0 9 -3 1 -11 -6 -6 -8 -23 -3 -43 4 -19 3
-41 -2 -50 -6 -11 -5 -16 3 -16 9 0 9 -3 0 -14 -8 -10 -9 -16 -1 -21 7 -4 7
-12 0 -26 -8 -14 -7 -19 2 -19 8 0 9 -3 1 -11 -6 -6 -8 -23 -3 -43 4 -19 3
-41 -2 -50 -6 -11 -5 -16 4 -16 8 0 9 -3 1 -11 -6 -6 -8 -23 -3 -43 4 -19 3
-41 -2 -50 -6 -11 -5 -16 3 -16 9 0 9 -3 0 -14 -8 -10 -9 -16 -1 -21 7 -4 7
-12 0 -26 -8 -14 -7 -19 2 -19 8 0 9 -3 1 -11 -6 -6 -7 -25 -3 -49 4 -24 3
-43 -3 -49 -8 -8 -7 -11 3 -11 10 0 11 -3 3 -11 -6 -6 -7 -25 -3 -49 4 -24 3
-43 -3 -49 -8 -8 -7 -11 2 -11 7 0 9 -5 4 -12 -11 -18 -10 -52 2 -60 6 -5 5
-8 -4 -8 -10 0 -11 -4 -3 -12 6 -7 11 -17 12 -23 1 -5 6 -9 11 -7 5 1 9 -1 9
-5 0 -5 -285 -8 -634 -8 -349 0 -632 4 -629 8 3 5 16 7 29 4 23 -4 26 -2 28
26 1 6 4 15 9 18 4 3 9 15 12 26 2 12 11 33 20 47 9 14 13 31 9 37 -4 8 -3 9
4 5 11 -6 13 -3 12 19 0 3 7 19 15 35 8 16 15 31 14 32 0 2 11 26 25 54 14 29
26 57 26 63 0 6 5 11 12 11 6 0 8 3 5 6 -3 4 -1 16 5 28 7 11 13 23 13 26 0 3
6 15 13 26 6 12 8 24 5 28 -3 3 -1 6 5 6 7 0 11 3 11 8 -3 11 18 60 55 135 19
37 30 64 25 61 -5 -3 -1 9 11 28 11 18 20 41 20 51 0 9 5 17 10 17 6 0 10 9
10 20 0 11 7 23 15 26 8 4 12 10 9 15 -3 5 -2 15 3 22 4 6 8 14 8 17 1 3 10
25 22 50 24 54 33 79 30 84 -1 2 7 13 17 25 11 12 16 21 11 21 -4 0 -2 6 4 13
6 8 8 17 4 20 -3 4 -1 7 6 7 7 0 10 4 7 9 -4 5 -2 11 4 13 6 2 12 14 15 27 2
12 9 29 16 37 6 8 8 14 4 14 -4 0 -2 6 4 13 6 8 8 17 4 20 -3 4 2 9 11 13 9 3
14 10 11 14 -3 5 -1 11 5 15 5 3 10 15 10 25 0 10 7 26 16 34 8 9 12 16 8 16
-3 0 -1 6 5 13 6 8 8 17 4 20 -3 4 -1 7 5 7 7 0 12 11 12 25 0 14 5 25 10 25
6 0 9 3 8 8 -3 13 13 52 20 48 4 -2 8 8 9 22 0 15 6 28 12 30 6 2 9 8 5 13 -3
5 0 9 6 9 6 0 9 4 5 9 -3 5 -1 12 5 16 6 4 8 11 5 16 -4 5 -1 9 5 9 6 0 9 4 6
9 -3 4 1 17 9 27 8 10 15 27 15 36 0 9 6 23 13 30 7 7 14 15 15 18 0 3 5 18
11 33 6 16 11 33 11 38 0 5 5 9 10 9 6 0 9 3 8 8 -4 15 14 52 25 52 7 0 6 4
-3 10 -11 7 -11 10 -2 10 7 0 11 4 7 9 -3 5 0 15 7 23 7 7 14 20 16 28 2 8 7
16 12 18 5 2 6 10 3 18 -3 8 -1 14 4 14 11 0 10 120 -1 138 -4 7 -3 12 2 12
12 0 10 73 -3 82 -7 5 -7 8 0 8 12 0 13 119 1 138 -4 6 -3 12 2 12 10 0 10 49
0 66 -4 6 -4 14 0 18 11 11 9 200 -3 211 -11 11 -603 14 -620 3 -6 -4 -10
-110 -9 -290 1 -222 -2 -288 -13 -304 -7 -11 -10 -24 -6 -27 3 -4 0 -7 -7 -7
-7 0 -11 -3 -8 -6 4 -3 0 -17 -7 -31 -8 -15 -12 -30 -9 -35 3 -4 1 -8 -4 -8
-8 0 -15 -13 -26 -50 -1 -3 -5 -11 -9 -17 -5 -7 -5 -13 -2 -13 4 0 -1 -7 -9
-16 -9 -8 -14 -20 -11 -25 4 -5 1 -9 -5 -9 -7 0 -10 -7 -6 -15 3 -8 1 -15 -5
-15 -6 0 -7 -5 -4 -10 3 -5 1 -10 -4 -10 -6 0 -10 -3 -10 -7 1 -5 0 -10 -1
-13 -1 -3 -3 -14 -5 -25 -2 -11 -9 -21 -14 -23 -6 -2 -11 -10 -11 -18 0 -8 -8
-29 -17 -47 -9 -18 -16 -35 -15 -39 1 -5 -3 -8 -9 -8 -5 0 -8 -4 -5 -9 3 -4
-3 -26 -13 -47 -11 -21 -17 -42 -14 -46 2 -5 -1 -8 -7 -8 -6 0 -8 -4 -5 -10 3
-5 1 -10 -4 -10 -6 0 -11 -6 -11 -13 0 -8 -6 -27 -14 -43 -37 -77 -49 -107
-49 -120 0 -8 -4 -14 -8 -14 -4 0 -13 -20 -20 -45 -7 -25 -17 -45 -21 -45 -4
0 -8 -9 -8 -19 0 -11 -5 -23 -10 -26 -6 -4 -8 -11 -5 -16 4 -5 1 -9 -4 -9 -6
0 -11 -9 -11 -19 0 -11 -8 -27 -17 -37 -10 -10 -17 -19 -15 -21 2 -2 1 -9 -1
-16 -3 -6 -6 -2 -6 10 -1 12 -6 25 -11 28 -6 4 -8 11 -5 16 4 5 1 9 -5 9 -6 0
-8 5 -5 10 3 6 1 10 -5 10 -6 0 -9 4 -6 8 2 4 -6 28 -19 54 -13 25 -21 49 -18
52 4 3 1 6 -5 6 -7 0 -12 8 -12 18 0 10 -5 23 -12 30 -7 7 -8 12 -4 12 5 0 3
7 -4 15 -7 8 -9 15 -6 15 4 0 -2 13 -13 29 -11 15 -18 31 -14 35 3 3 0 6 -7 6
-7 0 -10 3 -7 6 3 4 1 16 -5 28 -7 11 -13 24 -14 29 -1 4 -2 8 -4 10 -1 1 -3
11 -5 21 -2 10 -7 22 -12 25 -4 3 -9 11 -10 16 -1 6 -13 36 -27 68 -14 31 -23
57 -20 57 3 0 -1 7 -10 15 -8 9 -18 31 -22 50 -3 19 -10 35 -15 35 -5 0 -8 3
-7 8 0 4 -2 14 -5 22 -8 18 -23 61 -28 75 -1 6 -9 16 -16 23 -7 7 -13 19 -13
27 0 7 -7 25 -14 41 -8 15 -13 31 -10 36 3 4 1 8 -4 8 -9 0 -40 82 -34 89 2 2
-2 7 -9 11 -12 8 -15 93 -3 111 3 5 2 9 -3 9 -4 0 -6 36 -3 81 3 44 3 83 0 85
-6 6 -1 134 6 145 3 5 2 9 -3 9 -4 0 -7 31 -5 70 3 53 0 70 -10 71 -21 1 -72
7 -83 9 -5 1 -12 1 -15 0 -15 -7 -210 -4 -210 4 0 4 -6 4 -12 -1 -7 -5 -77 -9
-155 -8 -79 1 -144 -1 -144 -4 -1 -3 -3 -22 -4 -42 -1 -19 -5 -41 -9 -47 -4
-7 -4 -12 1 -12 9 0 8 -174 -2 -189 -3 -6 -3 -11 2 -11 12 0 10 -94 -2 -102
-6 -5 -5 -8 4 -8 11 0 11 -3 1 -15 -7 -8 -8 -15 -3 -15 11 0 11 -29 -1 -48 -4
-6 -4 -12 1 -12 10 0 9 -133 -1 -149 -4 -6 -4 -11 1 -11 4 0 9 -12 10 -26 0
-15 7 -30 15 -35 7 -5 9 -9 5 -9 -4 0 -2 -10 5 -22 7 -13 11 -29 9 -37 -1 -7
2 -10 8 -6 7 3 11 -2 11 -14 0 -11 5 -23 10 -26 6 -3 10 -15 10 -26 0 -10 4
-19 8 -19 5 0 9 -7 10 -15 1 -8 3 -22 4 -30 1 -8 5 -15 10 -15 4 0 8 -7 8 -15
0 -8 5 -15 11 -15 6 0 9 -7 5 -15 -3 -8 -1 -15 4 -15 6 0 9 -3 8 -7 -1 -5 6
-24 14 -43 9 -19 23 -51 31 -70 8 -19 27 -62 43 -95 15 -33 28 -62 29 -65 1
-3 9 -22 18 -44 9 -21 17 -45 17 -52 0 -8 5 -14 12 -14 6 0 8 -3 5 -6 -3 -4 0
-16 8 -28 8 -11 15 -28 15 -37 0 -9 7 -20 16 -23 9 -4 14 -9 11 -13 -4 -3 -2
-12 4 -20 6 -7 8 -13 5 -13 -4 0 1 -15 10 -32 30 -59 34 -68 34 -82 0 -8 5
-16 11 -18 5 -2 11 -10 13 -18 1 -8 11 -34 20 -57 10 -23 17 -45 16 -49 -1 -4
3 -10 9 -14 6 -3 14 -17 16 -30 2 -13 10 -27 17 -32 7 -4 10 -8 5 -8 -4 0 -1
-13 7 -29 9 -16 12 -31 9 -35 -4 -3 -2 -6 4 -6 6 0 16 -15 23 -32 7 -18 21
-51 31 -74 11 -22 19 -48 19 -57 0 -9 5 -17 10 -17 6 0 10 -9 10 -20 0 -11 5
-20 10 -20 6 0 10 -8 10 -18 0 -10 3 -21 6 -25 10 -10 74 -161 74 -174 0 -7 4
-13 9 -13 5 0 15 -20 22 -45 7 -25 17 -45 21 -45 4 0 8 -9 8 -20 0 -11 5 -20
11 -20 5 0 8 -4 5 -8 -3 -5 2 -21 10 -36 7 -16 14 -35 14 -43 0 -8 4 -12 8 -9
4 2 14 -15 21 -40 7 -24 18 -44 23 -44 7 0 7 -5 0 -13 -9 -11 -70 -15 -92 -7
-3 1 -9 1 -15 0 -5 -1 -304 -3 -663 -4 -429 -1 -652 2 -652 9 0 7 -3 7 -8 0
-4 -6 -245 -10 -687 -10 -442 0 -683 4 -687 10 -5 7 -8 7 -8 0 0 -7 -428 -10
-1268 -9 -697 1 -1272 2 -1279 3 -8 1 -11 52 -11 186 0 102 -2 189 -6 192 -3
3 -1 12 5 20 9 10 8 13 -2 13 -11 0 -11 3 1 11 11 8 12 12 2 16 -6 2 -9 9 -6
15 10 15 10 128 1 128 -5 0 -5 5 -1 12 8 13 8 177 0 185 -3 4 -1 12 5 20 9 10
8 13 -2 13 -11 0 -11 2 1 10 12 8 13 11 1 19 -8 5 -9 11 -3 15 9 5 6 75 -3 85
-3 2 0 10 6 18 9 10 8 13 -2 13 -11 0 -11 3 1 11 11 8 12 12 2 16 -6 2 -9 10
-5 16 10 17 11 47 1 47 -5 0 -6 5 -2 11 8 14 8 288 0 297 -3 3 -1 11 5 19 9
10 8 13 0 13 -7 0 -9 5 -5 11 10 16 11 209 1 209 -5 0 -5 5 -1 12 6 10 8 128
3 166 -1 4 0 12 1 17 2 12 2 128 -1 141 -1 5 -1 11 0 14 7 18 4 130 -2 130 -5
0 -5 5 -2 11 9 13 9 148 1 156 -3 3 -1 12 5 20 9 10 8 13 -2 13 -10 0 -10 3
-2 11 8 8 8 20 3 34 -5 13 -6 26 -3 29 8 8 6 193 -2 205 -3 5 -1 12 4 15 4 3
5 24 1 45 -5 26 -3 42 4 46 8 3 7 7 -2 11 -9 4 -10 10 -3 18 19 23 -5 38 -68
40 -37 1 -61 -2 -61 -9 0 -6 -3 -7 -8 0 -8 12 -171 13 -189 2 -7 -5 -13 -5
-13 0 0 10 -131 10 -147 0 -7 -5 -13 -5 -13 0 0 4 -59 8 -130 8 -72 0 -130 -4
-130 -8 0 -5 -5 -5 -11 -1 -18 11 -189 11 -189 -1 0 -7 -3 -7 -8 0 -9 13 -72
16 -72 3 0 -6 -6 -6 -14 1 -10 8 -16 9 -21 1z m8924 -624 c9 -6 12 -5 8 1 -4
7 52 10 163 9 l170 -1 53 -50 c29 -28 59 -60 67 -71 8 -12 20 -23 25 -25 6 -2
9 -7 7 -11 -1 -5 3 -8 8 -8 6 0 33 -23 59 -50 41 -43 50 -58 53 -95 2 -26 -1
-45 -7 -46 -6 0 -5 -2 1 -5 7 -3 8 -20 4 -49 -4 -25 -5 -47 -2 -50 3 -2 5 -45
6 -95 1 -90 1 -91 -21 -85 -14 3 -23 1 -23 -6 0 -8 -4 -8 -15 1 -12 10 -15 10
-15 -1 0 -9 -3 -10 -8 -4 -9 13 -42 15 -42 3 0 -6 -6 -5 -15 2 -12 10 -15 10
-15 -1 0 -9 -3 -10 -8 -4 -9 13 -42 16 -42 3 0 -5 -5 -6 -12 -2 -19 12 -68 13
-61 1 4 -6 1 -7 -6 -2 -17 10 -71 13 -65 3 3 -4 0 -8 -5 -8 -6 0 -11 4 -11 8
0 5 -17 7 -37 5 -77 -8 -103 -8 -103 -2 0 8 -32 5 -48 -5 -7 -4 -12 -2 -12 4
0 7 -6 8 -18 1 -10 -5 -24 -6 -31 -1 -8 4 -26 4 -41 0 -15 -4 -33 -4 -41 1 -8
4 -19 3 -26 -3 -7 -6 -13 -6 -13 -1 0 8 -76 9 -109 1 -12 -2 -15 28 -15 185
-1 103 3 187 8 187 4 0 4 6 -1 13 -12 15 -11 227 1 246 7 10 5 12 -4 6 -8 -5
-11 -4 -7 2 8 13 226 12 246 -1z m-8922 -841 c0 -8 -5 -11 -10 -8 -6 4 -7 1
-1 -8 11 -18 13 -99 2 -105 -5 -3 -5 -11 -1 -17 11 -17 12 -147 1 -147 -5 0
-6 -6 -1 -12 4 -7 7 -234 8 -503 l0 -490 -447 0 c-292 0 -448 -3 -448 -10 0
-7 -3 -7 -8 0 -11 15 -32 17 -48 4 -8 -6 -14 -7 -14 -2 0 6 -16 10 -36 9 l-37
-1 -1 113 c-1 61 2 112 7 112 4 0 5 6 0 13 -12 19 -13 38 -2 51 5 6 18 22 29
35 11 13 20 21 20 17 0 -3 13 6 30 20 16 15 27 31 23 37 -3 6 -1 7 5 3 6 -3
16 7 23 23 7 16 17 27 21 25 10 -7 99 81 91 90 -3 3 -1 6 5 6 7 0 12 7 12 16
0 8 5 12 11 9 9 -6 89 67 89 80 0 10 38 43 43 38 3 -2 10 5 17 16 6 12 15 19
21 16 5 -4 9 1 9 9 0 9 4 16 9 16 4 0 21 18 36 40 15 21 31 38 35 37 8 -2 60
50 60 60 0 11 51 53 66 53 7 0 14 4 14 9 0 11 45 65 79 95 32 29 83 79 102
102 9 10 33 32 52 48 20 16 34 33 31 37 -3 5 3 9 12 9 10 0 14 3 11 6 -4 4 9
19 28 34 19 15 31 30 27 34 -3 4 1 4 9 1 9 -3 16 -12 16 -20z m8742 -399 c11
-7 12 -6 5 5 -4 8 6 3 23 -11 18 -14 32 -30 32 -36 1 -7 8 -15 17 -18 9 -4 14
-9 11 -13 -4 -3 5 -16 18 -29 14 -13 25 -26 25 -30 0 -4 14 -20 30 -36 17 -15
30 -35 30 -43 0 -8 4 -15 8 -15 5 0 27 -24 50 -52 23 -29 54 -66 68 -83 41
-49 43 -53 37 -59 -4 -3 1 -6 10 -6 8 0 19 -9 22 -20 3 -11 11 -20 16 -20 5 0
9 -9 9 -21 0 -11 4 -18 8 -15 5 3 16 -4 25 -15 9 -10 13 -19 9 -19 -4 0 1 -5
11 -11 9 -6 15 -15 11 -20 -3 -5 0 -8 8 -7 7 2 12 -3 11 -9 -2 -7 2 -13 7 -13
6 0 10 -7 10 -16 0 -8 5 -12 10 -9 6 3 10 1 10 -4 0 -6 15 -27 34 -47 19 -20
42 -51 52 -70 10 -19 27 -37 36 -40 10 -3 18 -14 18 -25 0 -11 5 -17 10 -14 6
3 10 2 10 -3 0 -16 50 -63 60 -57 6 3 10 3 10 -2 0 -4 -195 -8 -434 -8 -239 0
-432 3 -429 8 2 4 8 5 13 2 21 -13 27 44 26 263 -1 127 2 232 7 232 4 0 5 6 0
13 -12 18 -10 277 2 277 7 0 7 3 0 8 -5 4 -10 27 -10 52 -1 43 1 46 25 45 14
0 31 -5 39 -9z m-2064 -876 c3 -5 1 -10 -4 -10 -6 0 -11 5 -11 10 0 6 2 10 4
10 3 0 8 -4 11 -10z m1763 -2 c-4 -12 -146 -20 -153 -8 -2 3 30 6 71 5 41 0
74 3 74 7 0 5 3 8 6 8 3 0 4 -5 2 -12z m-1968 -8 c0 -5 -5 -10 -11 -10 -5 0
-7 5 -4 10 3 6 8 10 11 10 2 0 4 -4 4 -10z m85 0 c3 -6 -1 -7 -9 -4 -18 7 -21
14 -7 14 6 0 13 -4 16 -10z m42 4 c-3 -3 -12 -4 -19 -1 -8 3 -5 6 6 6 11 1 17
-2 13 -5z m43 -4 c8 -5 11 -10 5 -10 -5 0 -17 5 -25 10 -8 5 -10 10 -5 10 6 0
17 -5 25 -10z m85 0 c3 -5 1 -10 -4 -10 -6 0 -11 5 -11 10 0 6 2 10 4 10 3 0
8 -4 11 -10z m59 -2 c-3 -4 -11 -5 -19 -1 -21 7 -19 12 4 10 11 0 18 -5 15 -9z
m1330 4 c2 -4 -4 -8 -14 -8 -10 0 -16 4 -14 8 3 4 9 8 14 8 5 0 11 -4 14 -8z
m151 -3 c3 -3 -20 -5 -50 -4 -30 0 -57 3 -60 6 -3 3 20 5 50 4 30 0 57 -3 60
-6z m215 -1 c0 -4 -4 -8 -9 -8 -6 0 -12 4 -15 8 -3 5 1 9 9 9 8 0 15 -4 15 -9z
m140 2 c0 -3 -29 -5 -65 -6 -35 0 -60 3 -55 6 13 8 120 8 120 0z"/>
<path d="M6680 10319 c-14 -4 -21 -7 -16 -8 5 -1 1 -10 -9 -21 -10 -11 -22
-17 -26 -14 -8 5 -13 -10 -10 -28 0 -5 -3 -8 -9 -8 -13 0 -90 -77 -90 -91 0
-5 -4 -8 -10 -4 -5 3 -16 -7 -24 -22 -8 -15 -15 -24 -16 -19 0 12 -50 -42 -50
-55 0 -5 -3 -8 -7 -6 -11 3 -93 -80 -85 -87 3 -3 0 -6 -6 -6 -6 0 -37 -26 -69
-57 -32 -32 -62 -57 -66 -55 -5 1 -6 -1 -3 -6 3 -5 -9 -21 -27 -36 l-32 -27 1
-234 c1 -172 -1 -233 -10 -228 -8 5 -8 3 0 -8 15 -19 15 -229 0 -248 -7 -9 -7
-12 0 -8 12 7 14 -651 1 -670 -4 -6 -3 -14 2 -17 11 -7 11 -215 -1 -222 -5 -4
-5 -10 0 -17 5 -7 9 -117 8 -250 l-1 -238 30 -8 c17 -4 40 -4 53 0 12 5 22 5
22 1 0 -4 29 -7 65 -7 36 0 65 4 65 8 0 5 6 5 12 1 18 -11 62 -11 70 1 5 7 8
7 8 0 0 -11 73 -11 90 0 6 3 10 3 10 -2 0 -4 29 -8 65 -8 37 0 65 4 65 10 0 7
3 7 8 0 4 -6 55 -10 117 -10 62 0 113 4 117 10 5 7 8 7 8 0 0 -8 359 -12 380
-5 3 2 10 1 15 0 6 -1 111 -3 235 -4 203 -1 283 5 267 20 -7 7 36 51 46 47 4
-2 7 3 7 11 0 9 6 16 14 16 8 0 18 9 21 20 4 11 11 18 16 15 5 -4 9 -1 9 5 0
6 11 21 25 34 14 13 25 25 25 28 0 2 28 34 63 70 34 37 87 94 117 126 30 33
58 58 63 55 4 -2 7 1 7 7 0 6 14 24 30 40 17 16 33 43 36 59 3 16 7 504 8
1085 1 839 -2 1056 -11 1056 -7 0 -13 4 -13 8 0 10 -1575 11 -1610 1z m859
-615 c-5 -6 -6 -14 -2 -17 3 -4 1 -7 -6 -7 -6 0 -25 -14 -41 -30 -17 -17 -30
-29 -30 -26 0 2 -15 -10 -34 -27 -19 -18 -48 -43 -65 -57 -17 -14 -31 -31 -31
-38 0 -8 -6 -12 -12 -9 -7 2 -21 -8 -30 -22 -10 -14 -18 -22 -18 -17 0 5 -9
-3 -20 -17 -11 -14 -29 -29 -40 -32 -11 -4 -18 -11 -15 -16 4 -5 -1 -9 -9 -9
-8 0 -19 -6 -23 -13 -4 -7 -19 -21 -33 -30 -13 -9 -21 -17 -16 -17 4 0 -3 -9
-16 -20 -12 -11 -39 -33 -58 -50 -19 -16 -39 -30 -43 -30 -5 0 -5 -4 -2 -10 3
-5 0 -10 -8 -10 -8 0 -17 -7 -21 -15 -3 -8 -12 -15 -21 -15 -8 0 -15 -5 -15
-10 0 -6 -9 -20 -20 -32 -11 -12 -20 -19 -20 -15 0 3 -13 -6 -28 -21 -35 -33
-81 -72 -85 -72 -2 0 -3 98 -4 218 l0 217 84 83 c45 46 83 89 83 94 0 6 3 9 6
6 5 -6 54 38 53 48 0 4 10 12 22 18 31 15 531 16 518 0z m109 -991 l1 -217
-34 -32 c-19 -17 -35 -36 -35 -41 0 -5 -11 -15 -24 -22 -13 -7 -30 -24 -37
-37 -7 -13 -14 -22 -16 -20 -2 2 -29 -23 -60 -56 -32 -32 -63 -56 -70 -54 -7
3 -13 1 -13 -5 0 -6 -5 -7 -11 -3 -16 9 -119 10 -119 1 0 -5 -4 -5 -10 -2 -5
3 -87 6 -181 6 -128 0 -169 3 -166 12 3 7 9 11 15 10 6 -2 16 6 22 17 6 11 18
20 27 20 9 0 13 3 10 7 -4 3 9 20 29 37 20 16 53 47 74 67 21 21 41 35 44 32
3 -3 8 2 12 11 3 9 13 16 22 16 8 0 13 3 9 6 -3 4 10 21 30 38 20 17 54 48 77
68 22 21 44 38 49 38 4 0 7 7 7 16 0 8 4 13 9 10 5 -4 11 -3 13 2 1 4 16 17
32 30 16 12 26 22 22 22 -4 0 19 21 51 47 32 25 62 53 66 60 5 7 12 11 16 9 4
-3 14 6 21 19 7 14 22 27 32 31 10 3 16 10 13 15 -4 5 -2 9 3 9 5 0 22 11 38
25 16 14 29 25 30 25 0 0 1 -98 2 -217z"/>
<path d="M5228 8219 c-15 -4 -29 -4 -32 -1 -3 3 -7 1 -7 -4 -4 -32 -3 -587 1
-594 6 -10 122 -16 137 -7 6 4 13 4 16 1 10 -10 197 -9 197 1 0 6 5 3 10 -5 7
-11 10 -11 10 -2 0 7 5 10 11 7 14 -9 139 -12 139 -3 0 4 12 3 28 -1 36 -10
95 6 89 24 -3 7 -3 16 0 19 8 7 7 122 -1 135 -4 6 -4 11 1 11 8 0 9 97 1 105
-2 3 -1 30 2 60 3 31 2 58 -2 61 -5 3 -6 10 -3 15 11 16 10 99 0 103 -6 3 -5
5 1 5 14 1 5 51 -13 69 -7 7 -13 9 -13 5 0 -9 -68 -8 -78 1 -2 3 -13 1 -23 -5
-14 -7 -19 -6 -19 2 0 7 -5 8 -12 3 -16 -11 -39 -11 -55 -1 -8 5 -13 3 -13 -4
0 -8 -4 -8 -12 -2 -7 5 -24 7 -38 3 -14 -4 -35 -3 -47 1 -13 5 -23 5 -23 1 0
-4 -13 -7 -30 -7 -16 0 -30 3 -30 7 0 4 -12 3 -28 -1 -15 -5 -37 -4 -50 0 -13
5 -21 5 -18 0 6 -10 -56 -10 -64 0 -3 3 -17 2 -32 -2z"/>
<path d="M5187 7024 c-4 -4 -46 -6 -95 -5 -48 1 -95 -1 -103 -4 -12 -5 -14
-71 -14 -473 1 -257 4 -476 8 -487 6 -19 15 -20 126 -20 66 0 124 4 128 9 4 4
9 65 10 134 1 70 2 132 2 138 1 14 101 14 101 -1 0 -6 3 -6 8 1 9 14 145 13
154 -1 5 -7 8 -7 8 1 0 14 150 14 150 -1 0 -6 3 -5 8 1 4 7 16 12 27 12 50 -1
53 1 50 37 -1 20 2 38 7 41 4 3 5 10 2 16 -11 17 -11 88 -1 88 6 0 6 5 0 13
-5 6 -8 23 -6 37 5 35 5 71 0 103 -2 15 0 27 6 27 6 0 5 5 -1 13 -7 8 -7 18
-2 27 5 8 7 17 5 20 -9 15 -13 60 -5 60 5 0 -41 50 -101 111 -74 75 -114 108
-120 102 -6 -6 -24 -7 -45 -3 -21 5 -34 4 -34 -2 0 -7 -4 -7 -13 0 -7 6 -19 7
-26 3 -7 -5 -28 -5 -47 -1 -21 5 -34 4 -34 -2 0 -7 -4 -7 -13 0 -7 6 -19 7
-26 3 -7 -5 -28 -5 -47 -1 -21 5 -34 4 -34 -2 0 -7 -5 -6 -13 1 -8 6 -17 8
-20 5z m158 -267 c11 -3 28 0 38 5 13 7 27 0 62 -34 25 -24 46 -52 48 -63 1
-11 7 -26 11 -34 6 -10 5 -12 -3 -7 -8 6 -11 2 -9 -10 3 -17 -7 -19 -104 -24
-59 -3 -116 -3 -125 0 -15 4 -18 17 -18 80 0 96 10 105 100 87z"/>
<path d="M5880 7020 c0 -4 -8 -6 -18 -3 -16 4 -19 -1 -17 -36 1 -23 -2 -41 -7
-41 -5 0 -5 -8 0 -17 4 -10 7 -97 5 -193 -1 -96 -2 -184 -2 -195 0 -11 0 -30
0 -42 -1 -41 -1 -47 2 -101 1 -30 0 -55 -4 -58 -3 -2 -4 -16 -2 -31 9 -50 9
-168 1 -185 -5 -10 -4 -20 3 -23 6 -4 8 -13 6 -19 -13 -33 10 -41 130 -41 73
-1 122 3 129 10 7 6 11 39 10 78 -1 37 2 67 7 67 4 0 5 5 1 11 -8 14 -12 99
-4 99 10 0 80 -85 80 -97 0 -7 6 -13 13 -13 7 0 21 -13 30 -30 10 -16 23 -30
28 -30 6 0 7 -4 4 -10 -3 -5 -2 -10 3 -10 5 0 15 -11 22 -25 7 -13 17 -22 21
-20 4 3 10 -3 13 -12 5 -16 21 -18 163 -17 87 1 163 2 169 3 21 2 13 59 -12
83 -13 13 -24 27 -24 31 0 8 -8 17 -75 90 -19 20 -32 37 -28 37 3 0 -4 8 -15
19 -12 10 -22 20 -22 23 0 10 35 5 42 -6 6 -8 8 -8 8 0 0 7 16 11 39 10 47 -2
49 2 47 98 0 36 3 68 9 70 7 3 7 5 0 5 -6 1 -9 59 -8 158 l1 156 -53 53 c-30
28 -51 55 -48 58 4 3 -2 6 -12 6 -10 0 -16 3 -12 6 8 8 -58 73 -86 83 -13 5
-29 6 -36 1 -7 -4 -28 -4 -47 0 -21 5 -34 4 -34 -2 0 -7 -4 -7 -13 0 -7 6 -19
7 -26 3 -7 -5 -28 -5 -47 -1 -21 5 -34 4 -34 -2 0 -7 -4 -7 -13 0 -7 6 -19 7
-26 3 -7 -5 -28 -5 -47 -1 -21 5 -34 4 -34 -2 0 -7 -4 -7 -13 0 -7 6 -19 7
-26 3 -7 -5 -28 -5 -47 -1 -19 4 -34 4 -34 0 0 -5 -13 -5 -30 0 -16 5 -30 5
-30 0z m283 -263 c93 10 114 4 168 -50 28 -28 34 -42 34 -76 l1 -41 -71 -1
c-186 -2 -177 -3 -181 26 -1 8 2 15 7 15 6 0 6 7 2 18 -5 9 -8 40 -7 67 3 58
4 64 10 49 2 -5 19 -9 37 -7z"/>
<path d="M6900 7012 c-5 -9 -10 -13 -10 -9 0 4 -42 -34 -92 -85 l-93 -92 1
-186 c0 -121 -3 -188 -10 -192 -8 -5 -8 -8 0 -8 6 0 10 -35 10 -95 0 -64 -3
-92 -10 -88 -8 5 -7 2 0 -8 7 -8 10 -52 9 -106 -1 -86 0 -93 19 -100 12 -4
152 -7 311 -8 l290 -1 45 48 c25 26 67 71 94 100 l48 53 -1 360 c0 198 0 375
-1 393 0 18 -4 31 -9 27 -5 -3 -12 -1 -16 5 -4 6 -12 7 -22 1 -9 -4 -31 -5
-49 -1 -21 5 -34 4 -34 -2 0 -7 -4 -7 -13 0 -7 6 -19 7 -26 3 -7 -5 -28 -5
-47 -1 -21 5 -34 4 -34 -2 0 -7 -4 -7 -13 0 -7 6 -19 7 -26 3 -7 -5 -28 -5
-47 -1 -21 5 -34 4 -34 -2 0 -7 -4 -7 -13 0 -7 6 -19 7 -26 3 -7 -5 -28 -5
-47 -1 -21 5 -34 4 -34 -2 0 -7 -4 -7 -13 0 -7 6 -18 7 -26 3 -8 -5 -27 -5
-42 -1 -22 7 -31 5 -39 -8z m218 -259 c6 -2 12 2 12 8 0 8 4 8 13 2 14 -11 27
-11 46 1 8 5 16 4 21 -4 4 -6 11 -12 16 -13 5 -1 9 -18 9 -37 0 -19 4 -40 8
-47 4 -6 4 -14 -1 -16 -10 -7 -9 -108 1 -125 5 -6 5 -12 0 -12 -11 0 -11 -94
1 -101 5 -4 -16 -33 -47 -64 l-55 -57 -79 1 c-107 0 -105 0 -98 11 4 6 6 97 5
202 0 106 2 189 5 186 4 -3 22 11 42 33 19 21 38 37 42 35 4 -3 13 -1 21 4 8
5 17 6 20 2 3 -4 11 -8 18 -9z"/>
<path d="M7635 7016 c-18 -13 -19 -36 -19 -484 -1 -300 3 -476 9 -485 8 -10
76 -12 309 -12 l299 0 36 36 c69 68 151 159 152 166 6 63 2 553 -5 553 -6 0
-5 5 1 11 15 15 -3 57 -29 65 -11 3 -18 8 -16 10 3 2 -24 33 -59 70 -35 36
-63 69 -63 72 0 4 -131 5 -291 2 -159 -3 -293 -2 -298 3 -4 4 -16 1 -26 -7z
m331 -266 c3 0 2 5 -2 11 -5 8 -1 8 14 0 14 -7 23 -8 27 -1 4 6 10 8 14 6 4
-3 19 -7 32 -9 26 -5 101 -72 91 -82 -3 -3 0 -5 7 -5 7 0 9 -5 5 -11 -10 -17
-11 -149 -1 -149 5 0 5 -5 1 -12 -4 -7 -7 -35 -6 -62 1 -36 -4 -56 -16 -68 -9
-9 -22 -23 -28 -30 -34 -38 -59 -50 -110 -52 -30 0 -54 3 -54 9 0 7 -3 7 -8 0
-12 -16 -41 -14 -46 4 -3 9 -4 28 -2 44 2 15 0 27 -3 27 -6 0 -5 54 2 95 2 11
1 32 -4 48 -4 15 -4 27 1 27 6 0 6 9 1 23 -5 12 -5 32 0 44 5 13 4 25 -1 28
-5 3 -7 12 -4 19 3 7 6 33 7 57 1 29 6 43 15 42 6 -2 12 1 12 7 0 6 9 6 26 0
14 -6 28 -10 30 -10z"/>
<path d="M8549 7012 c-16 -20 -20 -113 -4 -124 6 -5 6 -11 -1 -18 -7 -7 -9
-24 -4 -45 4 -19 5 -36 2 -39 -9 -9 -7 -146 2 -146 5 0 4 -6 -1 -12 -8 -11
-10 -112 -3 -143 1 -5 1 -12 0 -15 -7 -19 -3 -140 5 -140 7 0 7 -3 0 -8 -12
-9 -13 -82 -1 -82 5 0 4 -6 -1 -12 -10 -14 -10 -79 1 -96 3 -6 2 -13 -3 -17
-6 -3 -8 -11 -6 -18 2 -7 6 -23 9 -37 l5 -25 294 0 294 0 77 75 c42 41 79 73
81 70 2 -3 14 8 26 24 l23 29 1 388 c0 387 0 388 -21 398 -15 6 -25 6 -33 -2
-8 -8 -11 -8 -11 1 0 9 -5 10 -16 4 -9 -5 -32 -6 -50 -2 -21 5 -34 4 -34 -2 0
-7 -5 -6 -13 1 -8 6 -17 8 -20 4 -4 -3 -21 -6 -39 -7 l-33 -1 -2 -315 c-1
-207 -6 -316 -13 -318 -5 -2 -10 -10 -10 -18 0 -8 -3 -14 -8 -14 -4 0 -19 -11
-34 -24 -14 -14 -29 -22 -32 -19 -3 4 -6 2 -6 -4 0 -14 -68 -22 -74 -8 -3 6
-5 6 -5 0 -1 -6 -20 -9 -44 -7 l-43 4 1 130 c0 71 -3 132 -8 135 -4 2 -4 10 0
16 11 18 9 187 -2 187 -6 0 -6 3 0 8 7 4 11 51 11 117 -1 95 -3 112 -20 127
-13 12 -23 15 -31 8 -6 -5 -15 -7 -18 -4 -8 9 -135 9 -144 1 -3 -4 -11 -3 -18
3 -7 6 -16 4 -26 -8z"/>
<path d="M9507 7024 c-3 -3 -13 -7 -23 -8 -9 -2 -18 -11 -20 -20 -1 -10 -5
-20 -7 -22 -3 -3 -1 -21 3 -40 5 -20 4 -34 -1 -34 -6 0 -5 -8 1 -19 6 -12 6
-22 1 -25 -5 -3 -5 -21 -1 -41 5 -21 4 -35 -1 -35 -6 0 -6 -8 0 -19 6 -10 8
-21 5 -24 -8 -7 -7 -224 1 -236 3 -5 1 -13 -5 -16 -8 -5 -7 -12 2 -22 7 -9 13
-17 12 -17 -15 -18 -21 -45 -13 -53 7 -7 7 -13 1 -17 -6 -3 -7 -20 -2 -41 5
-21 4 -35 -1 -35 -6 0 -6 -8 0 -18 7 -13 7 -22 0 -29 -6 -6 11 -31 50 -70 33
-33 57 -64 53 -68 -4 -5 -2 -5 4 -2 7 4 26 -9 43 -28 17 -19 35 -35 41 -35 5
0 10 -3 10 -8 0 -4 118 -7 262 -7 l262 0 12 30 c10 25 10 33 -2 46 -8 9 -16
26 -17 38 -1 11 -6 21 -11 21 -5 0 -6 3 -3 7 4 3 3 11 -1 17 -5 6 -14 30 -22
54 -9 28 -18 41 -27 38 -7 -3 -13 0 -13 7 0 7 -3 8 -8 2 -4 -5 -16 -10 -27
-10 -11 0 -23 5 -27 10 -5 7 -8 7 -8 0 0 -6 -35 -10 -85 -10 -50 0 -85 4 -85
10 0 6 -4 4 -9 -3 -6 -10 -23 0 -67 42 l-58 56 -1 183 -1 183 50 -1 c28 0 59
3 69 8 10 5 17 4 17 -3 0 -7 6 -8 19 0 11 5 22 6 25 1 3 -4 20 -6 38 -4 36 5
40 5 78 0 14 -2 31 1 38 6 8 6 12 5 12 -2 0 -6 11 -1 24 11 13 13 24 25 24 28
0 3 1 7 2 10 1 3 3 12 5 20 2 8 16 47 29 87 14 40 23 79 20 87 -7 18 -34 29
-34 14 0 -7 -4 -7 -13 0 -7 6 -19 7 -26 3 -7 -5 -28 -5 -47 -1 -21 5 -34 4
-34 -2 0 -7 -4 -7 -13 0 -7 6 -19 7 -26 3 -7 -5 -28 -5 -47 -1 -21 5 -34 4
-34 -2 0 -7 -4 -7 -13 0 -7 6 -19 7 -26 3 -7 -5 -28 -5 -47 -1 -21 5 -34 4
-34 -2 0 -7 -4 -7 -13 0 -7 6 -19 7 -26 3 -7 -5 -28 -5 -47 -1 -21 5 -34 4
-34 -2 0 -7 -4 -7 -13 0 -7 6 -19 7 -26 3 -7 -5 -28 -5 -47 -1 -21 5 -34 4
-34 -2 0 -7 -5 -6 -13 1 -8 6 -16 8 -20 5z"/>
<path d="M10342 7021 c-8 -4 -24 -6 -37 -3 -19 3 -23 0 -21 -14 2 -11 -1 -27
-6 -36 -5 -10 -5 -18 0 -18 8 0 36 -77 30 -82 -1 -2 5 -14 14 -27 9 -13 14
-30 11 -39 -4 -10 -2 -13 5 -8 7 4 12 2 12 -6 0 -21 32 -35 70 -31 42 5 46 5
87 0 18 -2 34 1 36 6 1 5 8 -2 15 -17 7 -16 8 -26 1 -26 -6 0 -6 -7 1 -20 8
-14 8 -20 0 -20 -8 0 -8 -6 0 -20 8 -14 8 -20 0 -20 -8 0 -8 -6 0 -20 8 -14 8
-20 0 -20 -8 0 -8 -6 0 -20 8 -14 8 -20 0 -20 -8 0 -8 -6 0 -20 8 -14 8 -20 0
-20 -8 0 -8 -6 0 -20 8 -14 8 -20 0 -20 -7 0 -8 -6 0 -19 7 -14 7 -22 0 -26
-8 -5 -7 -11 1 -21 9 -11 9 -14 -1 -14 -10 0 -10 -3 -1 -14 8 -10 9 -16 1 -21
-7 -4 -7 -12 0 -26 8 -13 7 -19 0 -19 -8 0 -8 -6 0 -20 8 -14 8 -20 0 -20 -8
0 -8 -6 0 -20 8 -14 8 -20 0 -20 -8 0 -8 -6 0 -20 8 -14 8 -20 0 -20 -8 0 -8
-6 0 -20 8 -14 8 -20 0 -20 -7 0 -8 -6 0 -19 7 -14 7 -22 0 -26 -8 -5 -7 -11
1 -21 8 -10 8 -14 0 -14 -8 0 -6 -8 3 -23 14 -21 21 -22 123 -21 131 2 120 0
133 25 9 15 8 24 -1 35 -6 8 -8 14 -3 14 11 0 11 211 0 228 -4 7 -3 12 2 12 5
0 9 18 8 40 0 22 -5 40 -10 40 -5 0 -4 6 2 13 12 14 11 35 -1 55 -5 6 -4 12 0
12 5 0 8 56 7 124 l-1 123 46 1 c25 0 55 1 66 2 11 0 31 -1 45 -2 26 -4 74 37
64 54 -3 4 0 8 6 8 6 0 8 5 5 10 -3 6 -1 10 5 10 6 0 9 4 6 8 -3 5 1 19 8 33
6 13 18 46 25 72 13 44 12 49 -5 62 -11 7 -25 10 -33 5 -7 -4 -29 -4 -47 0
-21 5 -34 4 -34 -2 0 -7 -4 -7 -13 0 -7 6 -19 7 -26 3 -7 -5 -28 -5 -47 -1
-21 5 -34 4 -34 -2 0 -7 -4 -7 -13 0 -7 6 -19 7 -26 3 -7 -5 -28 -5 -47 -1
-21 5 -34 4 -34 -2 0 -7 -4 -7 -13 0 -7 6 -19 7 -26 3 -7 -5 -28 -5 -47 -1
-21 5 -34 4 -34 -2 0 -7 -4 -7 -13 0 -7 6 -19 7 -26 3 -7 -5 -28 -5 -47 -1
-21 5 -34 4 -34 -2 0 -7 -4 -7 -13 0 -7 6 -19 7 -26 3 -7 -5 -28 -5 -47 -1
-21 5 -34 4 -34 -2 0 -7 -4 -7 -13 0 -7 6 -18 7 -25 3z"/>
<path d="M11165 7019 l-30 -8 -1 -481 c0 -474 1 -480 21 -487 28 -10 235 -11
229 -1 -3 4 0 8 6 8 7 0 10 6 7 14 -3 8 -1 17 6 20 7 2 8 5 1 5 -10 1 -11 82
0 99 2 4 1 14 -4 22 -5 9 -5 19 2 27 6 7 6 13 1 13 -4 0 -7 30 -5 68 4 76 4
87 -1 122 -2 14 1 31 6 38 5 6 6 12 1 12 -10 0 -10 162 -1 177 3 5 2 15 -3 23
-5 9 -5 19 2 27 6 7 7 13 2 13 -8 0 -9 28 -4 120 1 14 -1 40 -3 58 -2 18 0 35
5 38 4 3 3 15 -2 28 -5 13 -7 26 -4 29 3 2 -9 9 -25 15 -22 8 -31 8 -31 0 0
-7 -4 -7 -13 0 -7 6 -19 7 -26 3 -7 -5 -28 -5 -47 -1 -21 5 -34 4 -34 -2 0 -7
-4 -7 -12 -1 -8 6 -25 7 -43 2z"/>
<path d="M11978 7022 l-287 -2 -94 -95 -93 -94 1 -390 c0 -214 3 -393 7 -397
11 -11 151 -12 165 -2 6 5 13 5 16 1 3 -5 101 -8 219 -8 l213 1 33 33 c17 18
32 35 32 38 0 3 24 29 53 58 66 68 77 82 70 88 -3 3 -6 176 -6 384 -2 329 -4
378 -17 378 -8 0 -17 2 -20 5 -3 3 -134 4 -292 2z m-53 -267 c6 -1 25 2 43 6
17 4 34 3 37 -2 3 -4 11 -6 18 -3 9 3 12 -41 12 -186 0 -104 -4 -190 -8 -190
-5 0 -5 -4 -2 -10 3 -5 1 -10 -5 -10 -6 0 -26 -16 -45 -35 -33 -35 -36 -36
-115 -37 -44 -1 -83 2 -87 5 -3 4 -6 92 -6 196 l0 190 40 40 c28 29 46 39 61
36 12 -2 22 1 22 6 0 6 6 7 13 2 6 -4 17 -8 22 -8z"/>
<path d="M12545 7022 c-60 -1 -112 -7 -115 -11 -8 -14 -5 -959 3 -967 4 -5 60
-8 123 -9 135 0 133 -2 131 98 -1 37 2 67 6 67 5 0 5 5 2 11 -6 8 -9 158 -6
232 1 18 21 25 21 7 0 -6 10 -22 23 -35 12 -13 43 -46 70 -73 26 -28 47 -52
47 -55 0 -2 24 -30 53 -61 52 -56 53 -59 52 -112 -1 -37 4 -59 13 -67 18 -14
132 -16 132 -2 0 7 3 7 8 0 6 -9 42 -12 67 -5 6 1 17 2 27 1 9 -1 19 3 23 9 5
8 9 605 5 925 0 40 -1 41 -37 43 -20 2 -40 5 -45 8 -4 3 -8 0 -8 -7 0 -8 -4
-8 -13 -1 -7 6 -19 7 -26 3 -7 -5 -28 -5 -47 -1 -21 5 -34 4 -34 -2 0 -6 -6
-6 -14 1 -10 8 -16 9 -21 1 -3 -6 -10 -8 -15 -5 -4 3 -10 -2 -14 -10 -3 -8 -1
-17 4 -20 6 -4 7 -14 2 -23 -10 -21 -9 -63 1 -79 5 -7 5 -13 0 -13 -4 0 -8
-63 -8 -140 l1 -140 -23 24 c-13 14 -23 29 -23 33 0 4 -21 26 -47 50 -25 24
-43 43 -38 43 4 0 -15 22 -43 49 -29 28 -52 55 -52 60 0 6 -4 11 -9 11 -5 0
-16 15 -24 32 -12 25 -13 34 -4 40 7 5 8 8 2 8 -6 0 -9 14 -7 33 5 46 -15 52
-143 49z"/>
<path d="M13524 7017 c-3 -9 -11 -17 -18 -17 -6 0 -20 -13 -31 -29 -10 -16
-22 -28 -26 -25 -4 2 -11 -5 -14 -17 -4 -11 -9 -18 -12 -16 -2 3 -23 -15 -45
-39 l-41 -45 -1 -131 c-1 -109 2 -134 16 -150 9 -11 20 -20 25 -20 17 -1 78
-25 141 -57 24 -11 50 -21 57 -21 7 0 15 -5 17 -11 2 -5 10 -11 18 -13 42 -8
70 -19 70 -27 0 -5 3 -8 8 -7 13 4 102 -34 102 -44 0 -5 4 -7 9 -3 5 3 12 1
16 -5 3 -6 -1 -13 -9 -16 -8 -3 -18 -13 -20 -22 -6 -19 -76 -24 -88 -7 -5 7
-8 6 -8 0 0 -6 -9 -11 -20 -11 -11 0 -20 4 -20 8 0 4 -11 3 -25 -2 -29 -11
-32 -8 -30 50 0 44 -12 70 -34 70 -6 0 -19 4 -29 9 -35 19 -93 42 -114 46 -12
3 -25 10 -30 17 -6 10 -8 10 -8 1 0 -7 -6 -10 -14 -7 -8 3 -18 0 -22 -8 -4 -7
-8 -104 -8 -215 -1 -193 0 -202 19 -209 40 -13 55 -14 55 -3 0 6 6 7 12 2 17
-10 118 -11 125 -1 2 5 10 5 16 1 17 -11 147 -10 147 1 0 5 6 4 13 -1 10 -8
71 -10 80 -3 7 6 47 6 47 0 0 -9 52 -7 68 3 6 5 12 4 12 -2 0 -21 31 -2 72 44
24 27 60 67 82 88 44 45 55 76 46 130 -4 20 -5 39 -1 41 11 7 0 166 -11 166
-6 0 -19 7 -28 15 -9 8 -25 16 -37 18 -12 1 -27 7 -35 13 -7 5 -51 25 -98 44
-47 19 -87 37 -90 40 -5 7 -62 23 -68 20 -2 -1 -12 8 -21 19 -10 11 -20 18
-23 16 -9 -9 -68 17 -68 29 0 13 54 48 62 40 11 -10 78 -10 82 0 3 8 7 8 13 1
4 -6 18 -10 31 -9 19 1 22 -3 21 -30 -3 -45 10 -76 31 -76 10 0 20 -5 22 -10
2 -6 18 -11 36 -13 17 -1 32 -5 32 -8 0 -7 50 -23 63 -21 4 1 7 -2 7 -6 0 -9
58 -7 67 2 8 8 10 56 3 56 -10 0 -5 175 5 182 6 5 6 8 -2 8 -12 0 -12 17 0 38
5 6 4 12 -1 12 -8 0 -9 50 -2 85 5 24 -2 34 -30 43 -16 6 -32 7 -35 2 -3 -4
-21 -4 -40 0 -21 5 -35 4 -35 -1 0 -6 -8 -5 -19 1 -12 6 -22 6 -25 1 -3 -5
-21 -5 -41 -1 -21 5 -35 4 -35 -1 0 -6 -8 -5 -19 1 -12 6 -22 6 -25 1 -3 -5
-21 -5 -41 -1 -21 5 -35 4 -35 -1 0 -6 -8 -5 -19 1 -12 6 -22 6 -25 1 -3 -5
-21 -5 -41 -1 -19 4 -35 4 -35 -1 0 -5 -10 -5 -23 0 -13 5 -30 5 -38 1 -8 -6
-16 -4 -21 3 -5 8 -9 6 -14 -6z"/>
</g>
</svg>
