<?xml version="1.0" standalone="no"?>
<!DOCTYPE svg PUBLIC "-//W3C//DTD SVG 20010904//EN"
 "http://www.w3.org/TR/2001/REC-SVG-20010904/DTD/svg10.dtd">
<svg version="1.0" xmlns="http://www.w3.org/2000/svg"
 width="1600.000000pt" height="1600.000000pt" viewBox="0 0 1600.000000 1600.000000"
 preserveAspectRatio="xMidYMid meet">
<metadata>
Created by potrace 1.11, written by Peter Selinger 2001-2013
</metadata>
<g transform="translate(0.000000,1600.000000) scale(0.100000,-0.100000)"
fill="#000000" stroke="none">
<path d="M3720 10248 c-52 -53 -99 -94 -105 -91 -5 4 -7 3 -3 -1 9 -10 -782
-802 -796 -798 -6 2 -8 0 -4 -3 9 -10 -812 -831 -826 -827 -6 2 -8 0 -4 -4 4
-4 -47 -61 -114 -128 l-122 -120 0 -564 c-1 -310 2 -566 7 -569 4 -2 5 -7 3
-11 -2 -4 460 -7 1028 -7 l1031 1 0 -729 c0 -479 3 -731 10 -735 14 -10 1054
-9 1049 0 -3 5 -2 8 3 8 4 0 8 327 8 728 l0 727 4665 -1 c2566 0 4674 3 4685
6 19 7 20 16 20 224 0 209 -1 217 -20 221 -47 11 -1177 14 -5145 17 l-4205 3
0 1365 c0 781 -4 1369 -9 1375 -5 7 -195 10 -535 10 l-526 0 -95 -97z m95
-1995 l0 -658 -521 -3 -520 -3 0 152 c1 165 -2 157 72 207 10 7 13 10 5 6 -9
-5 -12 -3 -7 4 4 7 13 12 20 12 7 0 18 11 24 25 6 14 16 25 22 25 5 0 10 7 10
16 0 8 5 12 10 9 6 -3 13 1 16 9 3 9 10 16 16 16 14 0 33 21 52 58 9 18 35 43
57 57 22 14 48 39 58 55 10 17 21 27 24 23 4 -3 7 2 7 11 0 10 5 16 11 14 12
-4 79 58 79 73 0 5 5 9 11 9 5 0 8 4 5 8 -3 5 12 19 33 33 20 13 39 29 42 34
2 6 6 9 9 8 3 0 14 11 25 25 18 26 18 26 0 12 -10 -8 -16 -10 -12 -4 3 6 26
23 51 39 26 16 46 35 46 43 0 7 5 10 10 7 6 -3 10 -1 10 5 0 13 68 80 81 80 6
0 8 4 4 9 -3 5 4 12 15 16 11 3 20 10 20 15 0 15 51 70 60 65 5 -3 12 0 16 6
5 8 3 9 -7 4 -12 -8 -12 -6 0 8 7 9 17 14 22 11 5 -3 13 5 18 18 9 22 36 50
56 57 6 2 16 12 23 22 7 11 16 19 20 19 4 0 7 -296 7 -657z"/>
<path d="M3039 8153 c-13 -16 -12 -17 4 -4 9 7 17 15 17 17 0 8 -8 3 -21 -13z"/>
<path d="M6630 10280 c-28 -28 -50 -55 -50 -62 0 -6 -3 -9 -6 -5 -8 7 -63 -45
-58 -55 2 -4 -5 -9 -16 -13 -11 -4 -18 -10 -15 -15 3 -5 -5 -14 -17 -21 -28
-14 -58 -45 -58 -58 0 -5 -9 -12 -20 -16 -11 -3 -27 -19 -37 -35 -9 -16 -20
-27 -25 -24 -4 3 -16 -8 -26 -25 -9 -17 -23 -31 -30 -31 -7 0 -11 -4 -8 -9 3
-4 -6 -13 -19 -19 -14 -7 -25 -19 -25 -27 0 -9 -3 -14 -7 -12 -5 2 -16 -4 -25
-15 -10 -10 -16 -18 -13 -18 3 0 0 -6 -7 -14 -7 -8 -16 -12 -19 -10 -4 2 -11
-2 -16 -9 -7 -9 -11 -2086 -4 -2142 1 -14 1681 -19 1681 -5 0 5 27 37 60 71
33 34 60 62 60 63 0 3 115 125 233 248 53 56 97 103 97 105 0 2 9 14 20 25 20
22 20 32 18 1098 l-3 1075 -808 3 -807 2 -50 -50z m907 -572 c-1 -9 -5 -14 -9
-12 -5 3 -11 -2 -14 -10 -3 -8 -14 -18 -25 -21 -11 -4 -17 -11 -14 -16 4 -5 3
-9 -2 -9 -4 0 -24 -15 -44 -33 -64 -56 -77 -65 -83 -60 -3 4 -6 2 -6 -4 0 -12
-98 -113 -109 -113 -4 0 -45 -36 -92 -80 -46 -44 -88 -80 -92 -80 -5 0 -5 -5
-1 -12 4 -6 3 -8 -2 -5 -6 3 -32 -15 -59 -40 -28 -25 -70 -64 -95 -87 -25 -22
-45 -45 -45 -51 0 -5 -8 -9 -17 -7 -8 1 -18 -4 -21 -12 -3 -8 -14 -19 -25 -25
-18 -10 -19 -2 -18 222 1 147 5 232 11 232 14 1 130 118 127 128 -1 5 2 6 7 2
6 -3 17 7 25 22 8 15 15 25 16 21 0 -4 9 0 19 9 11 9 18 20 15 25 -3 4 1 8 9
8 8 0 17 6 20 13 3 9 66 12 265 12 238 0 260 -1 259 -17z m107 -986 l1 -217
-127 -128 c-71 -70 -128 -131 -128 -135 0 -9 -517 -8 -526 1 -4 4 1 9 10 13 9
3 13 10 10 15 -3 5 0 9 6 9 5 0 33 23 60 50 27 28 52 50 56 50 3 0 23 18 45
40 22 22 44 40 49 40 6 0 10 7 10 15 0 8 4 14 9 13 5 -2 26 15 47 37 22 22 42
40 45 40 5 0 27 19 124 110 29 28 73 66 96 85 39 32 132 116 183 166 11 11 23
19 25 17 3 -2 5 -101 5 -221z"/>
<path d="M9368 10318 c-7 -12 -3 -689 4 -708 5 -14 9 -27 8 -29 -1 -2 2 -7 7
-10 5 -3 22 -37 38 -76 16 -38 32 -71 36 -73 5 -2 5 -10 2 -18 -3 -8 1 -14 8
-14 7 0 10 -3 7 -6 -4 -3 6 -31 22 -62 15 -31 33 -74 39 -94 7 -21 17 -38 22
-38 6 0 8 -4 5 -8 -3 -5 6 -31 20 -58 14 -27 32 -65 39 -84 7 -19 21 -53 31
-75 10 -22 17 -43 16 -47 -1 -5 3 -8 9 -8 5 0 7 -4 4 -10 -3 -5 -1 -10 4 -10
6 0 11 -8 11 -18 0 -10 6 -26 14 -37 7 -11 17 -31 21 -43 4 -13 16 -45 28 -70
12 -26 22 -49 22 -52 1 -3 15 -34 32 -70 17 -36 34 -76 38 -90 4 -14 16 -40
27 -57 11 -18 16 -33 13 -33 -4 0 -2 -6 4 -13 6 -8 8 -17 4 -20 -3 -4 -2 -7 4
-7 6 0 21 -27 33 -60 12 -33 27 -60 32 -60 5 0 6 -4 3 -10 -3 -5 0 -20 7 -32
7 -13 11 -26 10 -30 -1 -5 2 -8 8 -8 6 0 9 -3 8 -7 -1 -8 9 -33 59 -141 14
-31 27 -61 28 -67 0 -5 19 -48 41 -95 23 -47 44 -97 48 -112 3 -16 11 -28 16
-28 6 0 10 -6 10 -14 0 -7 9 -34 21 -60 l20 -46 206 2 207 3 16 45 c8 25 32
80 53 123 20 44 37 82 37 85 1 4 9 25 20 47 11 22 19 46 20 53 0 6 4 12 10 12
5 0 7 7 4 15 -4 8 -2 15 3 15 5 0 27 44 48 98 21 53 42 102 46 107 4 6 29 60
54 119 25 60 50 115 56 122 6 8 8 14 4 14 -4 0 -2 7 5 15 6 8 8 20 4 27 -4 7
-3 10 1 5 11 -9 37 51 28 66 -3 5 -1 7 4 4 6 -4 14 4 17 19 4 14 20 53 37 87
17 34 40 85 51 112 11 28 25 61 31 75 6 14 11 27 12 30 0 3 9 20 18 38 10 18
15 37 12 42 -4 6 1 13 9 16 9 3 16 11 16 18 0 6 18 50 39 99 22 48 36 87 33
87 -4 0 -2 4 3 8 6 4 19 27 30 52 10 25 28 65 39 90 11 25 19 48 18 53 -1 4 2
7 8 7 6 0 9 3 8 8 -1 4 3 16 9 27 6 11 12 23 12 27 1 4 10 27 20 50 10 24 21
53 25 66 4 12 10 22 14 22 4 0 7 155 7 345 0 298 -2 346 -15 349 -21 6 -581 6
-601 0 -13 -4 -15 -39 -15 -285 1 -272 0 -283 -22 -331 -12 -27 -19 -54 -16
-60 4 -7 2 -8 -4 -4 -7 4 -12 1 -12 -9 0 -9 -16 -50 -36 -91 -19 -40 -32 -79
-28 -85 4 -7 3 -9 -3 -6 -5 3 -15 -11 -22 -31 -7 -20 -22 -57 -34 -82 -11 -25
-20 -48 -19 -52 1 -5 -3 -8 -9 -8 -6 0 -9 -6 -6 -14 3 -8 3 -16 -1 -18 -9 -4
-62 -128 -62 -145 0 -7 -5 -13 -11 -13 -5 0 -7 -4 -4 -10 3 -5 2 -10 -4 -10
-6 0 -8 -7 -5 -15 4 -8 1 -15 -6 -15 -6 0 -9 -4 -5 -9 3 -5 1 -12 -4 -15 -5
-4 -15 -23 -22 -43 -6 -20 -23 -62 -37 -93 -14 -30 -25 -59 -23 -64 1 -5 -3
-12 -8 -15 -6 -4 -21 -35 -34 -70 -22 -58 -25 -61 -31 -37 -3 14 -11 26 -17
26 -6 0 -8 4 -5 9 3 5 -3 26 -13 48 -11 21 -30 65 -43 98 -12 33 -27 63 -31
66 -5 3 -8 9 -8 13 2 12 -2 23 -31 86 -14 30 -33 78 -43 105 -11 28 -23 53
-28 56 -5 3 -8 8 -6 10 1 2 -8 26 -20 53 -12 28 -24 60 -27 73 -4 13 -10 26
-15 29 -5 3 -9 12 -9 21 0 8 -11 37 -24 63 -13 27 -22 51 -19 54 4 3 1 6 -5 6
-7 0 -11 3 -10 8 1 4 -8 29 -20 55 -12 27 -25 60 -28 73 -3 13 -9 22 -13 20
-3 -2 -7 8 -8 22 0 15 -6 28 -12 30 -6 2 -9 8 -5 13 3 5 1 9 -5 9 -6 0 -9 101
-8 290 2 233 -1 291 -11 295 -13 5 -610 7 -614 3z"/>
<path d="M11843 10307 c-4 -6 -1 -7 7 -2 9 6 11 4 5 -5 -8 -14 -15 -2652 -7
-2677 3 -10 73 -13 302 -13 164 0 304 2 312 5 11 4 13 87 12 443 l-1 437 49 2
c44 1 50 -2 63 -27 8 -16 25 -37 38 -47 28 -22 47 -50 26 -39 -8 4 3 -8 24
-27 20 -19 37 -39 37 -45 0 -5 7 -13 16 -16 8 -3 13 -10 10 -14 -3 -5 5 -18
17 -29 12 -11 33 -35 47 -52 14 -18 32 -41 40 -51 8 -10 26 -33 40 -50 14 -17
37 -46 52 -63 15 -18 30 -40 34 -49 3 -10 12 -18 20 -18 8 0 14 -6 14 -14 0
-8 10 -23 23 -33 12 -10 23 -25 25 -33 2 -8 10 -22 19 -30 14 -13 15 -13 8 0
-5 9 -4 12 1 7 5 -5 10 -13 10 -18 1 -5 2 -14 3 -20 0 -5 5 -8 10 -4 5 3 12
-4 16 -15 4 -11 11 -17 17 -14 7 5 9 1 5 -9 -4 -11 -1 -17 8 -17 7 0 17 -5 21
-12 5 -7 3 -8 -7 -3 -13 8 3 -15 46 -62 46 -51 55 -63 53 -70 -3 -9 794 -17
827 -9 28 7 27 52 -3 67 -12 7 -21 20 -20 28 2 9 -3 15 -10 13 -8 -1 -11 2 -7
8 3 5 -1 13 -9 16 -9 3 -16 12 -16 20 0 7 -9 18 -20 24 -11 6 -20 16 -20 24 0
7 -10 22 -22 34 -35 32 -68 71 -68 77 0 3 -11 18 -25 33 -14 15 -25 32 -25 39
0 7 -6 13 -14 13 -8 0 -18 5 -22 12 -5 7 -3 8 5 3 10 -5 9 -2 0 13 -7 12 -15
19 -19 18 -3 -2 -13 5 -22 16 -10 10 -15 18 -10 18 4 0 -2 7 -12 15 -11 8 -16
15 -11 15 4 0 -2 9 -15 20 -13 11 -20 20 -16 20 7 0 -18 30 -69 83 -16 17 -23
27 -15 23 8 -5 4 3 -10 17 -14 13 -36 39 -50 57 -14 18 -30 38 -37 45 -7 7 -9
15 -6 19 4 3 -1 6 -10 6 -9 0 -17 7 -17 15 0 7 -6 18 -12 22 -7 4 -21 17 -30
28 l-17 21 250 -1 c137 0 255 3 262 7 16 9 18 1236 3 1257 -9 12 -8 13 4 6 8
-4 -11 17 -42 48 -31 32 -62 57 -67 57 -5 0 -13 5 -17 12 -5 7 -3 8 7 3 8 -5
-15 20 -51 56 -36 35 -68 62 -73 61 -4 -1 -6 2 -5 6 4 11 -126 142 -140 142
-6 0 -14 5 -18 12 -5 7 -3 8 7 3 8 -5 -22 27 -65 71 l-80 80 -778 0 c-505 1
-781 -3 -785 -9z m1598 -34 c13 -16 12 -17 -3 -4 -17 13 -22 21 -14 21 2 0 10
-8 17 -17z m200 -200 c13 -16 12 -17 -3 -4 -10 7 -18 15 -18 17 0 8 8 3 21
-13z m-442 -472 l135 -135 1 -180 c1 -100 0 -185 -2 -191 -2 -6 -151 -9 -426
-8 -232 0 -424 2 -427 2 -5 1 -6 625 -2 641 1 3 133 6 294 6 l291 0 136 -135z"/>
<path d="M5187 8215 c-2 -5 -3 -140 -3 -300 l1 -290 313 0 c172 -1 316 3 319
8 8 13 7 576 -1 585 -12 12 -625 9 -629 -3z"/>
<path d="M4979 7028 c-1 -2 -2 -218 -3 -481 -1 -318 2 -481 9 -486 18 -14 238
-12 247 2 4 6 8 72 8 145 0 130 0 132 23 133 12 0 126 1 252 2 l230 2 3 245 2
244 -97 98 -98 98 -287 0 c-159 0 -289 -1 -289 -2z m473 -296 c37 -36 42 -47
43 -87 l0 -45 -127 0 -128 0 0 88 0 88 85 -1 85 -1 42 -42z"/>
<path d="M5845 7018 c-3 -7 -4 -227 -3 -488 l3 -475 115 -2 c63 0 123 1 132 4
15 4 18 21 20 134 l3 131 112 -136 113 -136 162 2 161 3 4 27 c3 21 -15 48
-90 140 l-94 113 55 3 c31 2 62 8 69 13 9 8 12 71 12 242 l0 232 -99 103 -98
102 -287 0 c-219 0 -287 -3 -290 -12z m470 -288 c39 -39 45 -49 45 -87 l0 -43
-125 0 -125 0 0 88 0 88 80 -1 80 -1 45 -44z"/>
<path d="M6798 6933 l-97 -98 -1 -376 c0 -207 2 -383 5 -392 5 -13 49 -15 309
-16 l303 -1 92 99 91 99 -2 389 -3 388 -300 3 -300 2 -97 -97z m435 -348 l-3
-189 -47 -48 -47 -48 -88 0 -88 0 0 194 0 193 43 44 42 44 95 0 95 0 -2 -190z"/>
<path d="M7615 7018 c-3 -7 -4 -227 -3 -488 l3 -475 306 -2 306 -3 91 99 92
99 0 296 0 295 -87 96 -87 95 -308 0 c-238 0 -310 -3 -313 -12z m485 -283 l40
-39 0 -150 0 -150 -47 -48 -47 -48 -88 0 -88 0 0 233 c0 129 2 236 5 238 2 3
45 4 95 4 l90 -1 40 -39z"/>
<path d="M8535 7018 c-3 -7 -4 -227 -3 -488 l3 -475 295 -2 295 -2 103 98 102
98 -2 389 -3 389 -130 0 -130 0 -3 -317 -2 -317 -54 -45 -53 -46 -81 0 -82 0
-2 363 -3 362 -123 3 c-92 2 -124 -1 -127 -10z"/>
<path d="M9457 7023 c-4 -3 -7 -180 -7 -392 l0 -386 98 -97 97 -96 255 -1
c140 0 261 3 269 8 18 12 11 57 -26 156 l-30 80 -149 3 -149 3 -52 51 -53 52
0 182 c0 137 3 183 13 186 6 2 88 4 181 3 l168 -2 17 28 c27 44 75 195 68 213
-6 14 -41 16 -350 16 -189 0 -347 -3 -350 -7z"/>
<path d="M10277 7023 c-14 -13 -6 -60 23 -138 40 -107 49 -114 159 -111 l90 1
-1 -352 c0 -193 3 -356 6 -362 9 -14 233 -11 244 3 5 6 8 169 8 361 l-1 351
98 -1 98 -1 18 31 c28 46 75 191 68 209 -6 14 -50 16 -405 16 -219 0 -402 -3
-405 -7z"/>
<path d="M11126 7022 c-6 -10 -7 -932 0 -954 4 -15 21 -17 124 -17 115 1 120
1 125 22 3 12 4 231 3 487 l-3 465 -122 3 c-67 1 -124 -1 -127 -6z"/>
<path d="M11584 6938 l-94 -93 2 -395 3 -395 307 -1 306 -2 91 99 91 100 -2
387 -3 387 -304 3 -303 2 -94 -92z m436 -353 l0 -189 -47 -48 -47 -48 -88 0
-88 0 -1 33 c0 17 -1 106 0 196 l0 164 33 35 c43 45 52 47 153 47 l85 0 0
-190z"/>
<path d="M12415 7018 c-3 -7 -4 -227 -3 -488 l3 -475 110 -1 c61 -1 117 2 126
7 15 7 17 33 15 214 -1 113 2 204 5 203 7 -3 80 -83 179 -197 30 -35 63 -70
73 -79 12 -12 17 -32 17 -72 0 -30 4 -60 8 -66 9 -15 237 -13 252 2 7 7 9 161
8 485 l-3 474 -130 0 -130 0 -5 -215 c-5 -204 -6 -214 -22 -192 -19 28 -106
127 -162 186 -78 83 -89 103 -90 164 l-1 57 -123 3 c-92 2 -124 -1 -127 -10z"/>
<path d="M13412 6937 l-93 -93 0 -134 c0 -97 3 -136 13 -146 7 -7 48 -26 90
-43 42 -17 94 -39 114 -50 20 -11 41 -18 46 -15 4 3 8 1 8 -5 0 -5 17 -15 38
-22 20 -7 66 -26 102 -42 36 -17 70 -29 75 -28 6 1 -3 -11 -19 -28 -29 -30
-32 -31 -122 -31 l-91 0 -1 45 c-1 25 -4 51 -8 56 -5 9 -59 37 -84 44 -3 1
-18 7 -35 14 -16 6 -42 16 -57 22 -15 6 -36 8 -45 4 -10 -5 -20 -8 -23 -7 -7
1 -2 -410 6 -417 3 -3 143 -6 311 -6 l305 0 32 39 c17 21 53 61 80 89 l50 51
2 135 c1 124 0 137 -19 153 -10 10 -29 20 -41 24 -11 3 -53 21 -92 40 -39 18
-83 36 -98 40 -14 3 -26 11 -26 17 0 6 -3 8 -6 5 -3 -4 -31 6 -62 22 -31 15
-74 33 -94 39 -48 16 -52 24 -27 47 17 15 38 19 110 19 l89 1 0 -41 c0 -23 6
-48 13 -57 13 -17 151 -68 205 -75 22 -3 32 -1 33 9 1 15 1 374 0 401 -1 16
-22 17 -294 17 l-292 0 -93 -93z"/>
</g>
</svg>
